<svg xmlns="http://www.w3.org/2000/svg" viewBox="0 0 264 264" width="264" height="264">
<g transform="translate(21.208,12.686) scale(1.003)">
  <g fill="none" stroke="#2D6A2F" stroke-width="5.4" stroke-linecap="round" stroke-linejoin="round">
    <path d="M 11 101 L 110 8 L 210 101"></path>
    <path d="M 34 79 L 34 156"></path>
    <path d="M 186 79 L 186 171 C 186 207 151 230 111 230 C 78 230 47 209 44 178"></path>
    <path d="M 20 170 Q 38 173 54 176"></path>
    <path d="M 60 187 L 166 187"></path>
  </g>
  <g fill="#2D6A2F">
    <rect x="95.5" y="74.5" width="12" height="12" rx="2.6"></rect>
    <rect x="112.5" y="74.5" width="12" height="12" rx="2.6"></rect>
    <rect x="95.5" y="91.5" width="12" height="12" rx="2.6"></rect>
    <rect x="112.5" y="91.5" width="12" height="12" rx="2.6"></rect>
  </g>
  <g fill="none" stroke="#E8A020" stroke-width="4.43" stroke-linecap="round">
    <path d="M 94 167 C 86 158 102 150 94 140 C 86 130 102 126 95 119"></path>
    <path d="M 111 169 C 103 159 119 151 111 140 C 103 129 119 124 112 114"></path>
    <path d="M 128 167 C 120 158 136 150 128 140 C 120 130 136 126 129 119"></path>
  </g></g>
</svg>